<?xml version="1.0" encoding="utf-8"?>
<!-- Generator: Adobe Illustrator 19.0.1, SVG Export Plug-In . SVG Version: 6.00 Build 0)  -->
<svg version="1.1" id="Layer_1" xmlns="http://www.w3.org/2000/svg" xmlns:xlink="http://www.w3.org/1999/xlink" x="0px" y="0px"
	 viewBox="0 0 185 40" style="enable-background:new 0 0 185 40;" xml:space="preserve">
<style type="text/css">
	.st0{fill:#001F60;}
	.st1{fill:none;}
</style>
<path class="st0" d="M62.2,11.5L62.2,11.5c0-3.1,2.2-5.6,5.1-5.6c3.1,0,5,2.5,5,5.6c0,0.2,0,0.3,0,0.5h-8.4c0.2,2.3,1.8,3.6,3.7,3.6
	c1.5,0,2.5-0.6,3.3-1.5l1,0.9c-1.1,1.2-2.4,2-4.4,2C64.6,17.1,62.2,14.8,62.2,11.5 M70.7,10.9c-0.2-1.9-1.3-3.6-3.4-3.6
	c-1.8,0-3.2,1.5-3.5,3.6H70.7z"/>
<path class="st0" d="M75.1,6.2h1.6v1.8C77.3,6.9,78.5,6,80.3,6c2.6,0,4.1,1.7,4.1,4.3v6.6h-1.6v-6.2c0-2-1.1-3.2-2.9-3.2
	c-1.8,0-3.2,1.3-3.2,3.3v6.1h-1.6V6.2z"/>
<path class="st0" d="M87.1,11.5L87.1,11.5C87.1,8,89.6,6,92.2,6c2,0,3.2,1.1,4.1,2.3V1.8h1.6v15h-1.6v-2.1c-0.9,1.3-2.1,2.4-4.1,2.4
	C89.6,17.1,87.1,15,87.1,11.5 M96.3,11.5L96.3,11.5c0-2.5-1.9-4.1-3.8-4.1c-2.1,0-3.7,1.5-3.7,4.1v0c0,2.5,1.7,4.1,3.7,4.1
	C94.4,15.6,96.3,14,96.3,11.5"/>
<path class="st0" d="M100.7,11.6L100.7,11.6c0-3,2.3-5.6,5.5-5.6c3.2,0,5.5,2.5,5.5,5.5v0c0,3-2.4,5.5-5.6,5.5
	C103,17.1,100.7,14.6,100.7,11.6 M110.2,11.6L110.2,11.6c0-2.3-1.7-4.2-3.9-4.2c-2.3,0-3.9,1.9-3.9,4.1v0c0,2.3,1.7,4.1,3.9,4.1
	C108.6,15.7,110.2,13.8,110.2,11.6"/>
<polygon class="st0" points="113.2,6.2 114.9,6.2 117.7,14.7 120.6,6.2 121.9,6.2 124.7,14.7 127.5,6.2 129.2,6.2 125.4,16.9 
	124.1,16.9 121.2,8.5 118.3,16.9 116.9,16.9 "/>
<path class="st0" d="M131.8,6.2h1.6V8c0.7-1,1.6-2,3.4-2c1.7,0,2.8,0.9,3.4,2.1C141,6.9,142.1,6,144,6c2.4,0,3.9,1.6,3.9,4.3v6.6
	h-1.6v-6.2c0-2.1-1-3.2-2.8-3.2c-1.6,0-2.9,1.2-2.9,3.3v6.1h-1.6v-6.2c0-2-1-3.2-2.7-3.2s-3,1.4-3,3.4v6.1h-1.6V6.2z"/>
<path class="st0" d="M150.6,11.5L150.6,11.5c0-3.1,2.2-5.6,5.1-5.6c3.1,0,5,2.5,5,5.6c0,0.2,0,0.3,0,0.5h-8.4
	c0.2,2.3,1.8,3.6,3.7,3.6c1.5,0,2.5-0.6,3.3-1.5l1,0.9c-1.1,1.2-2.4,2-4.4,2C153,17.1,150.6,14.8,150.6,11.5 M159.1,10.9
	c-0.2-1.9-1.3-3.6-3.4-3.6c-1.8,0-3.2,1.5-3.5,3.6H159.1z"/>
<path class="st0" d="M163.5,6.2h1.6v1.8c0.7-1.2,1.8-2.1,3.6-2.1c2.6,0,4.1,1.7,4.1,4.3v6.6h-1.6v-6.2c0-2-1.1-3.2-2.9-3.2
	c-1.8,0-3.2,1.3-3.2,3.3v6.1h-1.6V6.2z"/>
<path class="st0" d="M176.7,14V7.6h-1.5V6.2h1.5V3h1.6v3.2h3.4v1.4h-3.4v6.2c0,1.3,0.7,1.8,1.8,1.8c0.5,0,1-0.1,1.5-0.4v1.4
	c-0.6,0.3-1.1,0.5-1.9,0.5C178,17,176.7,16.2,176.7,14"/>
<path class="st0" d="M62.2,24.4h1.4V26c0.6-0.9,1.5-1.8,3.1-1.8c1.6,0,2.6,0.8,3.1,1.9c0.7-1.1,1.7-1.9,3.4-1.9
	c2.2,0,3.6,1.5,3.6,3.9v6h-1.4v-5.6c0-1.9-0.9-2.9-2.5-2.9c-1.5,0-2.7,1.1-2.7,3V34h-1.4v-5.7c0-1.8-0.9-2.9-2.5-2.9
	c-1.5,0-2.7,1.3-2.7,3V34h-1.4V24.4z"/>
<path class="st0" d="M79.2,31.2L79.2,31.2c0-2.1,1.7-3.1,4.1-3.1c1.2,0,2.1,0.2,3,0.4v-0.3c0-1.7-1.1-2.6-2.9-2.6
	c-1.1,0-2,0.3-2.9,0.7L80,25c1.1-0.5,2.1-0.8,3.5-0.8c1.4,0,2.4,0.4,3.1,1.1c0.7,0.7,1,1.6,1,2.8V34h-1.4v-1.5
	c-0.7,0.9-1.8,1.7-3.5,1.7C81,34.2,79.2,33.2,79.2,31.2 M86.3,30.5v-0.9c-0.7-0.2-1.7-0.4-2.8-0.4c-1.8,0-2.8,0.8-2.8,2v0
	c0,1.2,1.1,1.9,2.4,1.9C84.8,33.1,86.3,32,86.3,30.5"/>
<path class="st0" d="M90.7,24.4h1.4V26c0.6-1,1.6-1.9,3.3-1.9c2.3,0,3.7,1.6,3.7,3.9v6h-1.4v-5.6c0-1.8-1-2.9-2.7-2.9
	c-1.7,0-2.9,1.2-2.9,3V34h-1.4V24.4z"/>
<path class="st0" d="M101.5,31.2L101.5,31.2c0-2.1,1.7-3.1,4.1-3.1c1.2,0,2.1,0.2,3,0.4v-0.3c0-1.7-1.1-2.6-2.9-2.6
	c-1.1,0-2,0.3-2.9,0.7l-0.4-1.2c1.1-0.5,2.1-0.8,3.5-0.8c1.4,0,2.4,0.4,3.1,1.1c0.7,0.7,1,1.6,1,2.8V34h-1.4v-1.5
	c-0.7,0.9-1.8,1.7-3.5,1.7C103.3,34.2,101.5,33.2,101.5,31.2 M108.6,30.5v-0.9c-0.7-0.2-1.7-0.4-2.8-0.4c-1.8,0-2.8,0.8-2.8,2v0
	c0,1.2,1.1,1.9,2.4,1.9C107.1,33.1,108.6,32,108.6,30.5"/>
<path class="st0" d="M112.9,35.7l0.7-1.1c1.1,0.8,2.3,1.2,3.7,1.2c2.1,0,3.5-1.2,3.5-3.4v-1.1c-0.8,1.1-2,2-3.8,2
	c-2.3,0-4.5-1.7-4.5-4.5v0c0-2.8,2.2-4.5,4.5-4.5c1.8,0,3,0.9,3.8,1.9v-1.7h1.4v7.9c0,1.5-0.4,2.6-1.2,3.4c-0.9,0.9-2.1,1.3-3.7,1.3
	C115.7,37,114.2,36.6,112.9,35.7 M120.8,28.7L120.8,28.7c0-2-1.7-3.3-3.5-3.3s-3.3,1.3-3.3,3.2v0c0,1.9,1.5,3.3,3.3,3.3
	C119.1,32,120.8,30.7,120.8,28.7"/>
<path class="st0" d="M124.8,29.2L124.8,29.2c0-2.8,2-5,4.6-5c2.8,0,4.5,2.3,4.5,5.1c0,0.2,0,0.3,0,0.5h-7.6c0.2,2.1,1.7,3.3,3.4,3.3
	c1.3,0,2.3-0.5,3-1.4l0.9,0.8c-1,1.1-2.1,1.8-4,1.8C127,34.2,124.8,32.2,124.8,29.2 M132.5,28.6c-0.1-1.7-1.2-3.3-3.1-3.3
	c-1.7,0-2.9,1.4-3.1,3.3H132.5z"/>
<path class="st0" d="M136.5,24.4h1.4V26c0.6-0.9,1.5-1.8,3.1-1.8c1.6,0,2.6,0.8,3.1,1.9c0.7-1.1,1.7-1.9,3.4-1.9
	c2.2,0,3.6,1.5,3.6,3.9v6h-1.4v-5.6c0-1.9-0.9-2.9-2.5-2.9c-1.5,0-2.7,1.1-2.7,3V34H143v-5.7c0-1.8-0.9-2.9-2.5-2.9
	c-1.5,0-2.7,1.3-2.7,3V34h-1.4V24.4z"/>
<path class="st0" d="M153.5,29.2L153.5,29.2c0-2.8,2-5,4.6-5c2.8,0,4.5,2.3,4.5,5.1c0,0.2,0,0.3,0,0.5H155c0.2,2.1,1.7,3.3,3.4,3.3
	c1.3,0,2.3-0.5,3-1.4l0.9,0.8c-1,1.1-2.1,1.8-4,1.8C155.7,34.2,153.5,32.2,153.5,29.2 M161.2,28.6c-0.1-1.7-1.2-3.3-3.1-3.3
	c-1.7,0-2.9,1.4-3.1,3.3H161.2z"/>
<path class="st0" d="M165.2,24.4h1.4V26c0.6-1,1.6-1.9,3.3-1.9c2.3,0,3.7,1.6,3.7,3.9v6h-1.4v-5.6c0-1.8-1-2.9-2.7-2.9
	c-1.7,0-2.9,1.2-2.9,3V34h-1.4V24.4z"/>
<path class="st0" d="M177.2,31.4v-5.8h-1.3v-1.3h1.3v-2.9h1.4v2.9h3.1v1.3h-3.1v5.6c0,1.2,0.6,1.6,1.6,1.6c0.5,0,0.9-0.1,1.4-0.3
	v1.2c-0.5,0.3-1,0.4-1.7,0.4C178.4,34.2,177.2,33.4,177.2,31.4"/>
<path class="st0" d="M1.9,19.8L1.9,19.8C1.9,12,7.7,5.3,16.1,5.3c8.5,0,14.1,6.6,14.1,14.3v0.1c0,7.7-5.8,14.4-14.2,14.4
	S1.9,27.4,1.9,19.8 M27,19.8L27,19.8c0-6.4-4.6-11.6-11-11.6c-6.4,0-10.9,5.1-10.9,11.4v0.1c0,6.3,4.6,11.5,11,11.5
	C22.5,31.2,27,26.1,27,19.8"/>
<path class="st0" d="M33.5,22V5.8h3.1v16c0,6,3.2,9.4,8.5,9.4c5.1,0,8.4-3.1,8.4-9.2V5.8h3.1v15.9C56.7,29.8,52,34,45.1,34
	C38.2,34,33.5,29.8,33.5,22"/>
<rect x="1.9" y="1.8" class="st1" width="179.7" height="36.1"/>
</svg>
